<svg xmlns="http://www.w3.org/2000/svg" enable-background="new 0 0 50 50" viewBox="0 0 50 50"><path fill="#B46F45" d="M41.367 41.07c-3.111 3.111 3.798 10.02 6.909 6.909 1.298-1.298.805-3.898-1.103-5.805C45.264 40.266 42.665 39.772 41.367 41.07zM31.032 33.902c-.931 1.612 1.506 3.023 2.438 1.409l1.619-2.802c.389-.673.158-1.534-.515-1.923C32.718 29.512 32.014 32.633 31.032 33.902z"/><path fill="#FFF" d="M31.506,33.455c1.015-1.646,1.603-2.901,2.024-2.578c0.453,0.348-1.045,1.441-1.951,4.024
				c-0.129,0.367-0.345,0.283-0.454-0.102C30.99,34.318,31.252,33.869,31.506,33.455z" opacity=".1"/><path fill="#B46F45" d="M32.775,35.645c-0.389,0.673-0.158,1.534,0.515,1.923c1.857,1.073,2.56-2.048,3.542-3.317
				c0.389-0.673,0.158-1.534-0.515-1.923C34.46,31.255,33.757,34.376,32.775,35.645z"/><path fill="#FFF" d="M32.868,35.989c0.137-0.556,1.791-3.074,1.928-3.225c0.14-0.155,0.326-0.26,0.478-0.144
				c0.453,0.348-1.045,1.441-1.951,4.024c-0.129,0.367-0.345,0.283-0.454-0.102C32.818,36.363,32.824,36.169,32.868,35.989z" opacity=".1"/><path fill="#B46F45" d="M34.518,37.388c-0.389,0.673-0.158,1.534,0.515,1.923c1.857,1.073,2.56-2.048,3.542-3.317
				c0.389-0.673,0.158-1.534-0.515-1.923C36.203,32.998,35.5,36.119,34.518,37.388z"/><path fill="#FFF" d="M34.611,37.732c0.117-0.476,1.701-2.975,1.928-3.225c0.356-0.393,0.805-0.139,0.412,0.424
				c-1.925,2.752-1.766,3.493-2.008,3.661c-0.183,0.127-0.296-0.181-0.331-0.306C34.561,38.106,34.567,37.912,34.611,37.732z" opacity=".1"/><path fill="#B46F45" d="M36.26,39.13c-0.931,1.612,1.506,3.023,2.438,1.409l1.619-2.802c0.389-0.673,0.158-1.534-0.515-1.923
				C37.946,34.741,37.243,37.861,36.26,39.13z"/><path fill="#FFF" d="M37.913,36.773c0.187-0.304,0.545-0.898,0.846-0.667c0.188,0.144,0.058,0.391-0.066,0.568
				c-1.925,2.752-1.766,3.493-2.008,3.661c-0.183,0.127-0.296-0.181-0.331-0.306C36.171,39.38,36.612,38.883,37.913,36.773z" opacity=".1"/><path fill="#B46F45" d="M39.622,38.071c-0.575,1.403-2.972,3.646-1.104,4.726c1.857,1.073,2.56-2.048,3.542-3.317
				c0.389-0.673,0.158-1.534-0.515-1.923C40.872,37.167,40.011,37.397,39.622,38.071z"/><path fill="#FFF" d="M39.656,38.516c0.112-0.182,0.225-0.365,0.368-0.523c0.062-0.068,0.131-0.132,0.216-0.167
				s0.189-0.033,0.262,0.022c0.084,0.064,0.106,0.186,0.082,0.289c-0.024,0.103-0.087,0.192-0.147,0.279
				c-1.925,2.752-1.766,3.493-2.008,3.661c-0.183,0.127-0.296-0.181-0.331-0.306C37.914,41.123,38.355,40.625,39.656,38.516z" opacity=".1"/><path fill="#B46F45" d="M41.365,39.814c-0.575,1.403-2.972,3.646-1.104,4.726c1.857,1.073,2.56-2.048,3.542-3.317
				c0.389-0.673,0.158-1.534-0.515-1.923C42.615,38.91,41.754,39.14,41.365,39.814z"/><path fill="#FFF" d="M41.767,39.735c0.062-0.068,0.131-0.132,0.216-0.167c0.085-0.034,0.189-0.033,0.262,0.022
				c0.084,0.064,0.106,0.186,0.082,0.289s-0.087,0.192-0.147,0.279c-0.755,1.079-1.449,2.214-1.885,3.456
				c-0.129,0.367-0.345,0.283-0.454-0.102C39.63,42.771,41.655,39.858,41.767,39.735z" opacity=".1"/><polygon fill="#DBDBDB" points="12.163 5.457 34.725 28.018 27.801 34.942 5.24 12.38 1 1.234"/><polygon points="13.032 12.623 12.163 5.457 11.852 12.069 5.24 12.38 12.406 13.249 12.632 13.276 30.835 31.907 31.69 31.052 13.06 12.849" opacity=".1"/><path fill="#B46F45" d="M41.831,31.063c-1.047,1.047-2.739,1.047-3.787,0c-0.255-0.255-0.604-0.389-0.967-0.403
		c-0.959,0-1.032,0.661-6.231,5.693c-0.556,0.556-0.519,1.388,0,1.907c1.047,1.047,1.047,2.739,0,3.787
		c-3.065,3.065-7.31-2.841-3.8-6.351l8.419-8.419C39.022,23.72,44.862,28.032,41.831,31.063z"/><path fill="#FFF" d="M45.986 41.634c.874.598 1.58 1.489 2.001 2.524.012.029.023.06.017.091-.011.056-.078.079-.127.059-.049-.02-.083-.068-.114-.114-.871-1.249-2.12-2.171-3.5-2.58-.512-.152-1.051-.24-1.508-.537.23-.24.318-.311.641-.3.306.01.611.05.911.119C44.9 41.033 45.47 41.282 45.986 41.634zM28.075 41.997c.481-.27-1.796-2.535-.82-4.604.129-.273.834-1.468-.029-1.053-.473.227-.673.829-.805 1.285C25.696 40.146 27.7 42.208 28.075 41.997zM41.699 28.373c-.291.518-2.505-1.81-4.604-.82-.273.129-1.468.834-1.053-.029.227-.473.829-.673 1.285-.805C39.847 25.994 41.909 27.998 41.699 28.373z" opacity=".1"/></svg>