<svg xmlns="http://www.w3.org/2000/svg" enable-background="new 0 0 2048 2048" viewBox="0 0 2048 2048" transform="scale(-1, 1)" x="2048" y="0">
  <path fill="#cf4529" d="M362.772,1601.166c-9.418,0-18.418-5.397-22.569-14.529
                c-33.902-74.59-36.942-157.914-8.56-234.626c13.672-36.954,33.91-70.502,60.153-99.712
                c27.001-30.055,59.155-54.134,95.566-71.567c12.343-5.908,27.135-0.693,33.043,11.646c5.908,12.342,0.694,27.135-11.647,33.043
                c-126.033,60.341-181.411,213.184-123.447,340.713c5.661,12.456,0.153,27.143-12.303,32.804
                C369.684,1600.451,366.199,1601.166,362.772,1601.166z"/>
  <path fill="#ed1536" d="M390.019,1792c-6.34,0-12.68-2.418-17.518-7.256L263.45,1675.693
                c-9.675-9.675-9.675-25.361,0-35.036l327.154-327.154c9.675-9.675,25.361-9.675,35.036,0l109.051,109.051
                c9.675,9.675,9.675,25.361,0,35.036l-327.154,327.154C402.7,1789.582,396.359,1792,390.019,1792z"/>
  <path fill="#e6eeff" d="M828.185,1357.754c-9.852,0-19.167-5.916-23.029-15.628
                c-5.055-12.714-98.912-93.438-106.942-104.518c-8.03-11.079-5.558-26.568,5.521-34.598l149.98-108.699
                c231.001-167.404,397.945-411.609,470.077-687.632c1.827-6.988,6.612-12.832,13.104-16c6.491-3.168,14.043-3.346,20.674-0.485
                c49.757,21.453,104.37,28.305,157.934,19.819c53.543-8.497,103.357-31.907,144.049-67.698l91.114-80.141
                c8.162-7.18,20.052-8.2,29.32-2.513c9.265,5.686,13.742,16.748,11.038,27.278c-69.431,270.344-210.473,517.582-407.877,714.987
                c-74.231,74.23-156.275,141.168-243.855,198.952c-88.729,58.543-183.865,108.164-282.767,147.485l-19.197,7.633
                C834.329,1357.188,831.231,1357.753,828.185,1357.754z"/>
  <path fill="#ffde33" d="M880.75,1580.512c-37.513,0-72.781-14.609-99.306-41.134L508.816,1266.75
                c-26.526-26.526-41.134-61.794-41.134-99.307s14.608-72.78,41.134-99.306c54.758-54.758,143.855-54.758,198.613,0
                c37.728,37.728,50.462,93.385,34.115,143.166l95.347,95.348c49.782-16.349,105.439-3.613,143.167,34.115l0,0l0,0
                c54.758,54.758,54.758,143.855,0,198.613C953.532,1565.903,918.264,1580.512,880.75,1580.512z"/>
</svg>
